<mxfile host="app.diagrams.net" modified="2024-06-03T08:16:40.350Z" agent="Mozilla/5.0 (Windows NT 10.0; Win64; x64) AppleWebKit/537.36 (KHTML, like Gecko) Chrome/125.0.0.0 Safari/537.36" etag="I8rQEje_zDdw0JGvpfyx" version="24.3.1" type="device">
  <diagram name="Page-1" id="Sa51_qnlnXoF9wh4kp9t">
    <mxGraphModel dx="2625" dy="1545" grid="0" gridSize="5" guides="1" tooltips="1" connect="1" arrows="1" fold="1" page="1" pageScale="1" pageWidth="850" pageHeight="1100" math="0" shadow="0">
      <root>
        <mxCell id="0" />
        <mxCell id="1" parent="0" />
        <mxCell id="jOOYg4f98chksV3a-Csq-1" value="main" style="swimlane;fontStyle=1;align=center;verticalAlign=top;childLayout=stackLayout;horizontal=1;startSize=26;horizontalStack=0;resizeParent=1;resizeParentMax=0;resizeLast=0;collapsible=1;marginBottom=0;whiteSpace=wrap;html=1;" parent="1" vertex="1">
          <mxGeometry x="117" y="135" width="160" height="174" as="geometry">
            <mxRectangle x="120" y="80" width="70" height="30" as="alternateBounds" />
          </mxGeometry>
        </mxCell>
        <mxCell id="jOOYg4f98chksV3a-Csq-2" value="&lt;div&gt;+ difficulty: int&lt;/div&gt;&lt;div&gt;+ p1: Player*&lt;/div&gt;&lt;div&gt;+ p2: Player*&lt;br&gt;&lt;/div&gt;&lt;div&gt;+ p1_isHuman: bool&lt;/div&gt;&lt;div&gt;+ p2_isHuman: bool&lt;/div&gt;&lt;div&gt;+ ticTacToeGrid: Grid&lt;/div&gt;&lt;div&gt;+ game: TicTacToeGame&lt;br&gt;&lt;/div&gt;" style="text;strokeColor=none;fillColor=none;align=left;verticalAlign=top;spacingLeft=4;spacingRight=4;overflow=hidden;rotatable=0;points=[[0,0.5],[1,0.5]];portConstraint=eastwest;whiteSpace=wrap;html=1;" parent="jOOYg4f98chksV3a-Csq-1" vertex="1">
          <mxGeometry y="26" width="160" height="114" as="geometry" />
        </mxCell>
        <mxCell id="jOOYg4f98chksV3a-Csq-3" value="" style="line;strokeWidth=1;fillColor=none;align=left;verticalAlign=middle;spacingTop=-1;spacingLeft=3;spacingRight=3;rotatable=0;labelPosition=right;points=[];portConstraint=eastwest;strokeColor=inherit;" parent="jOOYg4f98chksV3a-Csq-1" vertex="1">
          <mxGeometry y="140" width="160" height="8" as="geometry" />
        </mxCell>
        <mxCell id="jOOYg4f98chksV3a-Csq-4" value="+ main(): int" style="text;strokeColor=none;fillColor=none;align=left;verticalAlign=top;spacingLeft=4;spacingRight=4;overflow=hidden;rotatable=0;points=[[0,0.5],[1,0.5]];portConstraint=eastwest;whiteSpace=wrap;html=1;" parent="jOOYg4f98chksV3a-Csq-1" vertex="1">
          <mxGeometry y="148" width="160" height="26" as="geometry" />
        </mxCell>
        <mxCell id="jOOYg4f98chksV3a-Csq-5" value="GraphicsObject" style="swimlane;fontStyle=1;align=center;verticalAlign=top;childLayout=stackLayout;horizontal=1;startSize=26;horizontalStack=0;resizeParent=1;resizeParentMax=0;resizeLast=0;collapsible=1;marginBottom=0;whiteSpace=wrap;html=1;" parent="1" vertex="1">
          <mxGeometry x="240.34" y="1160" width="160" height="60" as="geometry" />
        </mxCell>
        <mxCell id="jOOYg4f98chksV3a-Csq-6" value="" style="line;strokeWidth=1;fillColor=none;align=left;verticalAlign=middle;spacingTop=-1;spacingLeft=3;spacingRight=3;rotatable=0;labelPosition=right;points=[];portConstraint=eastwest;strokeColor=inherit;" parent="jOOYg4f98chksV3a-Csq-5" vertex="1">
          <mxGeometry y="26" width="160" height="8" as="geometry" />
        </mxCell>
        <mxCell id="jOOYg4f98chksV3a-Csq-7" value="+ draw(): void" style="text;strokeColor=none;fillColor=none;align=left;verticalAlign=top;spacingLeft=4;spacingRight=4;overflow=hidden;rotatable=0;points=[[0,0.5],[1,0.5]];portConstraint=eastwest;whiteSpace=wrap;html=1;" parent="jOOYg4f98chksV3a-Csq-5" vertex="1">
          <mxGeometry y="34" width="160" height="26" as="geometry" />
        </mxCell>
        <mxCell id="TxWl_RIkXLw9mioHR3yU-25" style="edgeStyle=orthogonalEdgeStyle;rounded=0;orthogonalLoop=1;jettySize=auto;html=1;exitX=0.5;exitY=0;exitDx=0;exitDy=0;endArrow=block;endFill=0;endSize=20;" edge="1" parent="1" source="jOOYg4f98chksV3a-Csq-8" target="jOOYg4f98chksV3a-Csq-5">
          <mxGeometry relative="1" as="geometry">
            <Array as="points">
              <mxPoint x="507" y="1286" />
              <mxPoint x="320" y="1286" />
            </Array>
          </mxGeometry>
        </mxCell>
        <mxCell id="jOOYg4f98chksV3a-Csq-8" value="Cross" style="swimlane;fontStyle=1;align=center;verticalAlign=top;childLayout=stackLayout;horizontal=1;startSize=26;horizontalStack=0;resizeParent=1;resizeParentMax=0;resizeLast=0;collapsible=1;marginBottom=0;whiteSpace=wrap;html=1;" parent="1" vertex="1">
          <mxGeometry x="401" y="1313" width="212.67" height="182" as="geometry" />
        </mxCell>
        <mxCell id="jOOYg4f98chksV3a-Csq-9" value="&lt;div&gt;+ screengraphic: ScreenGraphic*&lt;/div&gt;&lt;div&gt;- boxNumber: int&lt;/div&gt;&lt;div&gt;- farbe: Color::colorPredefined&lt;br&gt;&lt;/div&gt;" style="text;strokeColor=none;fillColor=none;align=left;verticalAlign=top;spacingLeft=4;spacingRight=4;overflow=hidden;rotatable=0;points=[[0,0.5],[1,0.5]];portConstraint=eastwest;whiteSpace=wrap;html=1;" parent="jOOYg4f98chksV3a-Csq-8" vertex="1">
          <mxGeometry y="26" width="212.67" height="54" as="geometry" />
        </mxCell>
        <mxCell id="jOOYg4f98chksV3a-Csq-10" value="" style="line;strokeWidth=1;fillColor=none;align=left;verticalAlign=middle;spacingTop=-1;spacingLeft=3;spacingRight=3;rotatable=0;labelPosition=right;points=[];portConstraint=eastwest;strokeColor=inherit;" parent="jOOYg4f98chksV3a-Csq-8" vertex="1">
          <mxGeometry y="80" width="212.67" height="8" as="geometry" />
        </mxCell>
        <mxCell id="jOOYg4f98chksV3a-Csq-11" value="&lt;div&gt;+ Cross(Screengraphic*, int): Cross&lt;/div&gt;&lt;div&gt;+ ~Cross(): void&lt;br&gt;&lt;/div&gt;&lt;div&gt;+ draw(): void&lt;/div&gt;&lt;div&gt;+ getBoxNumber: int&lt;/div&gt;&lt;div&gt;+ setDark(): void&lt;/div&gt;&lt;div&gt;+ del(): void&lt;br&gt;&lt;/div&gt;" style="text;strokeColor=none;fillColor=none;align=left;verticalAlign=top;spacingLeft=4;spacingRight=4;overflow=hidden;rotatable=0;points=[[0,0.5],[1,0.5]];portConstraint=eastwest;whiteSpace=wrap;html=1;" parent="jOOYg4f98chksV3a-Csq-8" vertex="1">
          <mxGeometry y="88" width="212.67" height="94" as="geometry" />
        </mxCell>
        <mxCell id="TxWl_RIkXLw9mioHR3yU-26" style="edgeStyle=orthogonalEdgeStyle;rounded=0;orthogonalLoop=1;jettySize=auto;html=1;exitX=0.5;exitY=0;exitDx=0;exitDy=0;endArrow=block;endFill=0;endSize=20;" edge="1" parent="1" source="jOOYg4f98chksV3a-Csq-12" target="jOOYg4f98chksV3a-Csq-5">
          <mxGeometry relative="1" as="geometry">
            <Array as="points">
              <mxPoint x="722" y="1286" />
              <mxPoint x="320" y="1286" />
            </Array>
          </mxGeometry>
        </mxCell>
        <mxCell id="jOOYg4f98chksV3a-Csq-12" value="Circle" style="swimlane;fontStyle=1;align=center;verticalAlign=top;childLayout=stackLayout;horizontal=1;startSize=26;horizontalStack=0;resizeParent=1;resizeParentMax=0;resizeLast=0;collapsible=1;marginBottom=0;whiteSpace=wrap;html=1;" parent="1" vertex="1">
          <mxGeometry x="621" y="1313" width="202.67" height="184" as="geometry" />
        </mxCell>
        <mxCell id="jOOYg4f98chksV3a-Csq-13" value="&lt;div&gt;+ screengraphic: ScreenGraphic*&lt;/div&gt;&lt;div&gt;- boxNumber: int&lt;/div&gt;&lt;div&gt;- farbe: Color::colorPredefined&lt;br&gt;&lt;/div&gt;" style="text;strokeColor=none;fillColor=none;align=left;verticalAlign=top;spacingLeft=4;spacingRight=4;overflow=hidden;rotatable=0;points=[[0,0.5],[1,0.5]];portConstraint=eastwest;whiteSpace=wrap;html=1;" parent="jOOYg4f98chksV3a-Csq-12" vertex="1">
          <mxGeometry y="26" width="202.67" height="54" as="geometry" />
        </mxCell>
        <mxCell id="jOOYg4f98chksV3a-Csq-14" value="" style="line;strokeWidth=1;fillColor=none;align=left;verticalAlign=middle;spacingTop=-1;spacingLeft=3;spacingRight=3;rotatable=0;labelPosition=right;points=[];portConstraint=eastwest;strokeColor=inherit;" parent="jOOYg4f98chksV3a-Csq-12" vertex="1">
          <mxGeometry y="80" width="202.67" height="8" as="geometry" />
        </mxCell>
        <mxCell id="jOOYg4f98chksV3a-Csq-15" value="&lt;div&gt;+ Circle(Screengraphic*, int): Circle&lt;/div&gt;&lt;div&gt;+ ~Circle(): void&lt;br&gt;&lt;/div&gt;&lt;div&gt;+ draw(): void&lt;/div&gt;&lt;div&gt;+ getBoxNumber: int&lt;/div&gt;&lt;div&gt;+ setDark(): void&lt;/div&gt;&lt;div&gt;+ del(): void&lt;br&gt;&lt;/div&gt;" style="text;strokeColor=none;fillColor=none;align=left;verticalAlign=top;spacingLeft=4;spacingRight=4;overflow=hidden;rotatable=0;points=[[0,0.5],[1,0.5]];portConstraint=eastwest;whiteSpace=wrap;html=1;" parent="jOOYg4f98chksV3a-Csq-12" vertex="1">
          <mxGeometry y="88" width="202.67" height="96" as="geometry" />
        </mxCell>
        <mxCell id="TxWl_RIkXLw9mioHR3yU-24" style="edgeStyle=orthogonalEdgeStyle;rounded=0;orthogonalLoop=1;jettySize=auto;html=1;exitX=0.5;exitY=0;exitDx=0;exitDy=0;endArrow=block;endFill=0;endSize=20;" edge="1" parent="1" source="jOOYg4f98chksV3a-Csq-16" target="jOOYg4f98chksV3a-Csq-5">
          <mxGeometry relative="1" as="geometry">
            <Array as="points">
              <mxPoint x="139" y="1286" />
              <mxPoint x="320" y="1286" />
            </Array>
          </mxGeometry>
        </mxCell>
        <mxCell id="jOOYg4f98chksV3a-Csq-16" value="Grid" style="swimlane;fontStyle=1;align=center;verticalAlign=top;childLayout=stackLayout;horizontal=1;startSize=26;horizontalStack=0;resizeParent=1;resizeParentMax=0;resizeLast=0;collapsible=1;marginBottom=0;whiteSpace=wrap;html=1;" parent="1" vertex="1">
          <mxGeometry x="37.67" y="1340" width="202.67" height="125" as="geometry" />
        </mxCell>
        <mxCell id="jOOYg4f98chksV3a-Csq-17" value="&lt;div&gt;+ screengraphic: ScreenGraphic*&lt;/div&gt;" style="text;strokeColor=none;fillColor=none;align=left;verticalAlign=top;spacingLeft=4;spacingRight=4;overflow=hidden;rotatable=0;points=[[0,0.5],[1,0.5]];portConstraint=eastwest;whiteSpace=wrap;html=1;" parent="jOOYg4f98chksV3a-Csq-16" vertex="1">
          <mxGeometry y="26" width="202.67" height="24" as="geometry" />
        </mxCell>
        <mxCell id="jOOYg4f98chksV3a-Csq-18" value="" style="line;strokeWidth=1;fillColor=none;align=left;verticalAlign=middle;spacingTop=-1;spacingLeft=3;spacingRight=3;rotatable=0;labelPosition=right;points=[];portConstraint=eastwest;strokeColor=inherit;" parent="jOOYg4f98chksV3a-Csq-16" vertex="1">
          <mxGeometry y="50" width="202.67" height="8" as="geometry" />
        </mxCell>
        <mxCell id="jOOYg4f98chksV3a-Csq-19" value="&lt;div&gt;+ Grid(Screengraphic*, int): Grid&lt;/div&gt;&lt;div&gt;+ ~Grid(): void&lt;br&gt;&lt;/div&gt;&lt;div&gt;+ draw(): void&lt;/div&gt;&lt;div&gt;+ getRect(): int&lt;br&gt;&lt;/div&gt;" style="text;strokeColor=none;fillColor=none;align=left;verticalAlign=top;spacingLeft=4;spacingRight=4;overflow=hidden;rotatable=0;points=[[0,0.5],[1,0.5]];portConstraint=eastwest;whiteSpace=wrap;html=1;" parent="jOOYg4f98chksV3a-Csq-16" vertex="1">
          <mxGeometry y="58" width="202.67" height="67" as="geometry" />
        </mxCell>
        <mxCell id="jOOYg4f98chksV3a-Csq-20" value="Player" style="swimlane;fontStyle=1;align=center;verticalAlign=top;childLayout=stackLayout;horizontal=1;startSize=26;horizontalStack=0;resizeParent=1;resizeParentMax=0;resizeLast=0;collapsible=1;marginBottom=0;whiteSpace=wrap;html=1;" parent="1" vertex="1">
          <mxGeometry x="357" y="590" width="190" height="74" as="geometry" />
        </mxCell>
        <mxCell id="jOOYg4f98chksV3a-Csq-21" value="" style="line;strokeWidth=1;fillColor=none;align=left;verticalAlign=middle;spacingTop=-1;spacingLeft=3;spacingRight=3;rotatable=0;labelPosition=right;points=[];portConstraint=eastwest;strokeColor=inherit;" parent="jOOYg4f98chksV3a-Csq-20" vertex="1">
          <mxGeometry y="26" width="190" height="8" as="geometry" />
        </mxCell>
        <mxCell id="jOOYg4f98chksV3a-Csq-22" value="&lt;div&gt;+ getMove(TicTacToeGame*): int&lt;/div&gt;&lt;div&gt;+ getWin(): std::string&lt;br&gt;&lt;/div&gt;" style="text;strokeColor=none;fillColor=none;align=left;verticalAlign=top;spacingLeft=4;spacingRight=4;overflow=hidden;rotatable=0;points=[[0,0.5],[1,0.5]];portConstraint=eastwest;whiteSpace=wrap;html=1;" parent="jOOYg4f98chksV3a-Csq-20" vertex="1">
          <mxGeometry y="34" width="190" height="40" as="geometry" />
        </mxCell>
        <mxCell id="jOOYg4f98chksV3a-Csq-23" value="Human" style="swimlane;fontStyle=1;align=center;verticalAlign=top;childLayout=stackLayout;horizontal=1;startSize=26;horizontalStack=0;resizeParent=1;resizeParentMax=0;resizeLast=0;collapsible=1;marginBottom=0;whiteSpace=wrap;html=1;" parent="1" vertex="1">
          <mxGeometry x="603" y="770" width="230" height="150" as="geometry" />
        </mxCell>
        <mxCell id="jOOYg4f98chksV3a-Csq-24" value="&lt;div&gt;- pointer: Pointer*&lt;/div&gt;&lt;div&gt;- win: std::string&lt;br&gt;&lt;/div&gt;" style="text;strokeColor=none;fillColor=none;align=left;verticalAlign=top;spacingLeft=4;spacingRight=4;overflow=hidden;rotatable=0;points=[[0,0.5],[1,0.5]];portConstraint=eastwest;whiteSpace=wrap;html=1;" parent="jOOYg4f98chksV3a-Csq-23" vertex="1">
          <mxGeometry y="26" width="230" height="44" as="geometry" />
        </mxCell>
        <mxCell id="jOOYg4f98chksV3a-Csq-25" value="" style="line;strokeWidth=1;fillColor=none;align=left;verticalAlign=middle;spacingTop=-1;spacingLeft=3;spacingRight=3;rotatable=0;labelPosition=right;points=[];portConstraint=eastwest;strokeColor=inherit;" parent="jOOYg4f98chksV3a-Csq-23" vertex="1">
          <mxGeometry y="70" width="230" height="8" as="geometry" />
        </mxCell>
        <mxCell id="jOOYg4f98chksV3a-Csq-26" value="&lt;div&gt;+ Human(std::string, Pointer*): Human&lt;br&gt;&lt;/div&gt;&lt;div&gt;+ ~Human(): void&lt;br&gt;&lt;/div&gt;&lt;div&gt;+ getMove(TicTacToeGame*): int&lt;/div&gt;&lt;div&gt;+ getWin(): std::string&lt;br&gt;&lt;/div&gt;" style="text;strokeColor=none;fillColor=none;align=left;verticalAlign=top;spacingLeft=4;spacingRight=4;overflow=hidden;rotatable=0;points=[[0,0.5],[1,0.5]];portConstraint=eastwest;whiteSpace=wrap;html=1;" parent="jOOYg4f98chksV3a-Csq-23" vertex="1">
          <mxGeometry y="78" width="230" height="72" as="geometry" />
        </mxCell>
        <mxCell id="TxWl_RIkXLw9mioHR3yU-5" style="edgeStyle=orthogonalEdgeStyle;rounded=0;orthogonalLoop=1;jettySize=auto;html=1;exitX=0.5;exitY=0;exitDx=0;exitDy=0;endArrow=none;endFill=0;" edge="1" parent="1" source="jOOYg4f98chksV3a-Csq-27">
          <mxGeometry relative="1" as="geometry">
            <mxPoint x="445" y="722" as="targetPoint" />
            <mxPoint x="311" y="876" as="sourcePoint" />
            <Array as="points">
              <mxPoint x="162" y="722" />
              <mxPoint x="445" y="722" />
            </Array>
          </mxGeometry>
        </mxCell>
        <mxCell id="jOOYg4f98chksV3a-Csq-27" value="AI" style="swimlane;fontStyle=1;align=center;verticalAlign=top;childLayout=stackLayout;horizontal=1;startSize=26;horizontalStack=0;resizeParent=1;resizeParentMax=0;resizeLast=0;collapsible=1;marginBottom=0;whiteSpace=wrap;html=1;" parent="1" vertex="1">
          <mxGeometry x="17" y="770" width="290" height="210" as="geometry" />
        </mxCell>
        <mxCell id="jOOYg4f98chksV3a-Csq-28" value="&lt;div&gt;- diff: int&lt;br&gt;&lt;/div&gt;&lt;div&gt;- win: std::string&lt;br&gt;&lt;/div&gt;" style="text;strokeColor=none;fillColor=none;align=left;verticalAlign=top;spacingLeft=4;spacingRight=4;overflow=hidden;rotatable=0;points=[[0,0.5],[1,0.5]];portConstraint=eastwest;whiteSpace=wrap;html=1;" parent="jOOYg4f98chksV3a-Csq-27" vertex="1">
          <mxGeometry y="26" width="290" height="44" as="geometry" />
        </mxCell>
        <mxCell id="jOOYg4f98chksV3a-Csq-29" value="" style="line;strokeWidth=1;fillColor=none;align=left;verticalAlign=middle;spacingTop=-1;spacingLeft=3;spacingRight=3;rotatable=0;labelPosition=right;points=[];portConstraint=eastwest;strokeColor=inherit;" parent="jOOYg4f98chksV3a-Csq-27" vertex="1">
          <mxGeometry y="70" width="290" height="8" as="geometry" />
        </mxCell>
        <mxCell id="jOOYg4f98chksV3a-Csq-30" value="&lt;div&gt;+ AI(std::string, int): AI&lt;br&gt;&lt;/div&gt;&lt;div&gt;+ ~AI(): void&lt;br&gt;&lt;/div&gt;&lt;div&gt;+ getMove(TicTacToeGame*): int&lt;/div&gt;&lt;div&gt;+ getWin(): std::string&lt;/div&gt;&lt;div&gt;- generateNextMove(TicTacToeGame*): int&lt;/div&gt;&lt;div&gt;- generateRandomMove(TicTacToeGame*): int&lt;/div&gt;&lt;div&gt;- simulateWinningMove(TicTacToeGame*, int): bool&lt;/div&gt;&lt;div&gt;- getSurvivalMove(TicTacToeGame*): int&lt;br&gt;&lt;/div&gt;" style="text;strokeColor=none;fillColor=none;align=left;verticalAlign=top;spacingLeft=4;spacingRight=4;overflow=hidden;rotatable=0;points=[[0,0.5],[1,0.5]];portConstraint=eastwest;whiteSpace=wrap;html=1;" parent="jOOYg4f98chksV3a-Csq-27" vertex="1">
          <mxGeometry y="78" width="290" height="132" as="geometry" />
        </mxCell>
        <mxCell id="jOOYg4f98chksV3a-Csq-31" value="TicTacToeGame" style="swimlane;fontStyle=1;align=center;verticalAlign=top;childLayout=stackLayout;horizontal=1;startSize=26;horizontalStack=0;resizeParent=1;resizeParentMax=0;resizeLast=0;collapsible=1;marginBottom=0;whiteSpace=wrap;html=1;" parent="1" vertex="1">
          <mxGeometry x="495" y="90" width="210" height="316" as="geometry" />
        </mxCell>
        <mxCell id="jOOYg4f98chksV3a-Csq-32" value="&lt;div&gt;+ grid: Grid*&lt;/div&gt;&lt;div&gt;+ uart: Uart_Mcu*&lt;br&gt;&lt;/div&gt;&lt;div&gt;- crosses: Cross*&lt;/div&gt;&lt;div&gt;- circles: Circle*&lt;/div&gt;&lt;div&gt;- crossTurn: bool&lt;br&gt;&lt;/div&gt;&lt;div&gt;- p1: Player*&lt;/div&gt;&lt;div&gt;- p2: Player*&lt;/div&gt;&lt;div&gt;- screenGraphic: ScreenGraphic*&lt;br&gt;&lt;/div&gt;&lt;div&gt;&lt;br&gt;&lt;/div&gt;" style="text;strokeColor=none;fillColor=none;align=left;verticalAlign=top;spacingLeft=4;spacingRight=4;overflow=hidden;rotatable=0;points=[[0,0.5],[1,0.5]];portConstraint=eastwest;whiteSpace=wrap;html=1;" parent="jOOYg4f98chksV3a-Csq-31" vertex="1">
          <mxGeometry y="26" width="210" height="124" as="geometry" />
        </mxCell>
        <mxCell id="jOOYg4f98chksV3a-Csq-33" value="" style="line;strokeWidth=1;fillColor=none;align=left;verticalAlign=middle;spacingTop=-1;spacingLeft=3;spacingRight=3;rotatable=0;labelPosition=right;points=[];portConstraint=eastwest;strokeColor=inherit;" parent="jOOYg4f98chksV3a-Csq-31" vertex="1">
          <mxGeometry y="150" width="210" height="8" as="geometry" />
        </mxCell>
        <mxCell id="jOOYg4f98chksV3a-Csq-34" value="&lt;div&gt;+ TicTacToeGame(Player*, Player*, Grid*, Uart_Mcu*): TicTacToeGame&lt;/div&gt;&lt;div&gt;+ ~TicTacToeGame(): void&lt;br&gt;&lt;/div&gt;&lt;div&gt;+ setMove(int, bool): bool&lt;/div&gt;&lt;div&gt;+ posIsEmpty(int): bool&lt;/div&gt;&lt;div&gt;+ checkWinner(): bool&lt;/div&gt;&lt;div&gt;+ getCrossTurn(): bool&lt;/div&gt;&lt;div&gt;- showState(): void&lt;/div&gt;&lt;div&gt;- inArray(int, int*): bool&lt;/div&gt;&lt;div&gt;- drawTurn(): void&lt;br&gt;&lt;/div&gt;" style="text;strokeColor=none;fillColor=none;align=left;verticalAlign=top;spacingLeft=4;spacingRight=4;overflow=hidden;rotatable=0;points=[[0,0.5],[1,0.5]];portConstraint=eastwest;whiteSpace=wrap;html=1;" parent="jOOYg4f98chksV3a-Csq-31" vertex="1">
          <mxGeometry y="158" width="210" height="158" as="geometry" />
        </mxCell>
        <mxCell id="TxWl_RIkXLw9mioHR3yU-10" style="edgeStyle=orthogonalEdgeStyle;rounded=0;orthogonalLoop=1;jettySize=auto;html=1;endArrow=none;endFill=0;" edge="1" parent="1" source="jOOYg4f98chksV3a-Csq-35">
          <mxGeometry relative="1" as="geometry">
            <mxPoint x="415" y="722" as="targetPoint" />
            <Array as="points">
              <mxPoint x="454" y="722" />
              <mxPoint x="415" y="722" />
            </Array>
          </mxGeometry>
        </mxCell>
        <mxCell id="jOOYg4f98chksV3a-Csq-35" value="NetworkPlayer" style="swimlane;fontStyle=1;align=center;verticalAlign=top;childLayout=stackLayout;horizontal=1;startSize=26;horizontalStack=0;resizeParent=1;resizeParentMax=0;resizeLast=0;collapsible=1;marginBottom=0;whiteSpace=wrap;html=1;" parent="1" vertex="1">
          <mxGeometry x="339" y="770" width="230" height="230" as="geometry" />
        </mxCell>
        <mxCell id="jOOYg4f98chksV3a-Csq-36" value="&lt;div&gt;- pointer: Pointer*&lt;/div&gt;&lt;div&gt;- win: std::string&lt;br&gt;&lt;/div&gt;" style="text;strokeColor=none;fillColor=none;align=left;verticalAlign=top;spacingLeft=4;spacingRight=4;overflow=hidden;rotatable=0;points=[[0,0.5],[1,0.5]];portConstraint=eastwest;whiteSpace=wrap;html=1;" parent="jOOYg4f98chksV3a-Csq-35" vertex="1">
          <mxGeometry y="26" width="230" height="44" as="geometry" />
        </mxCell>
        <mxCell id="jOOYg4f98chksV3a-Csq-37" value="" style="line;strokeWidth=1;fillColor=none;align=left;verticalAlign=middle;spacingTop=-1;spacingLeft=3;spacingRight=3;rotatable=0;labelPosition=right;points=[];portConstraint=eastwest;strokeColor=inherit;" parent="jOOYg4f98chksV3a-Csq-35" vertex="1">
          <mxGeometry y="70" width="230" height="8" as="geometry" />
        </mxCell>
        <mxCell id="jOOYg4f98chksV3a-Csq-38" value="&lt;div&gt;+ NetworkPlayer(std::string, Pointer*, HandshakeScreen*): NetworkPlayer&lt;/div&gt;&lt;div&gt;+&amp;nbsp;NetworkPlayer(std::string, Pointer*, int): NetworkPlayer&lt;/div&gt;&lt;div&gt;+ ~NetworkPlayer(): void&lt;br&gt;&lt;/div&gt;&lt;div&gt;+ getMove(TicTacToeGame*): int&lt;/div&gt;&lt;div&gt;+ getWin(): std::string&lt;/div&gt;&lt;div&gt;- touchGetMove(TicTacToeGame*): int&lt;/div&gt;&lt;div&gt;- receiveGetMove(): int&lt;br&gt;&lt;/div&gt;&lt;div&gt;- checkError(): bool&lt;br&gt;&lt;/div&gt;" style="text;strokeColor=none;fillColor=none;align=left;verticalAlign=top;spacingLeft=4;spacingRight=4;overflow=hidden;rotatable=0;points=[[0,0.5],[1,0.5]];portConstraint=eastwest;whiteSpace=wrap;html=1;" parent="jOOYg4f98chksV3a-Csq-35" vertex="1">
          <mxGeometry y="78" width="230" height="152" as="geometry" />
        </mxCell>
        <mxCell id="TxWl_RIkXLw9mioHR3yU-23" style="edgeStyle=orthogonalEdgeStyle;rounded=0;orthogonalLoop=1;jettySize=auto;html=1;exitX=0.5;exitY=0;exitDx=0;exitDy=0;endArrow=block;endFill=0;endSize=20;" edge="1" parent="1" source="jOOYg4f98chksV3a-Csq-39" target="jOOYg4f98chksV3a-Csq-5">
          <mxGeometry relative="1" as="geometry">
            <Array as="points">
              <mxPoint x="461" y="1555" />
              <mxPoint x="320" y="1555" />
            </Array>
          </mxGeometry>
        </mxCell>
        <mxCell id="jOOYg4f98chksV3a-Csq-39" value="Menu" style="swimlane;fontStyle=1;align=center;verticalAlign=top;childLayout=stackLayout;horizontal=1;startSize=26;horizontalStack=0;resizeParent=1;resizeParentMax=0;resizeLast=0;collapsible=1;marginBottom=0;whiteSpace=wrap;html=1;" parent="1" vertex="1">
          <mxGeometry x="360" y="1607" width="202.67" height="86" as="geometry" />
        </mxCell>
        <mxCell id="jOOYg4f98chksV3a-Csq-41" value="" style="line;strokeWidth=1;fillColor=none;align=left;verticalAlign=middle;spacingTop=-1;spacingLeft=3;spacingRight=3;rotatable=0;labelPosition=right;points=[];portConstraint=eastwest;strokeColor=inherit;" parent="jOOYg4f98chksV3a-Csq-39" vertex="1">
          <mxGeometry y="26" width="202.67" height="8" as="geometry" />
        </mxCell>
        <mxCell id="jOOYg4f98chksV3a-Csq-42" value="&lt;div&gt;+ Menu(): Menu&lt;/div&gt;&lt;div&gt;+ ~Menu(): void&lt;br&gt;&lt;/div&gt;&lt;div&gt;+ draw(): void&lt;/div&gt;" style="text;strokeColor=none;fillColor=none;align=left;verticalAlign=top;spacingLeft=4;spacingRight=4;overflow=hidden;rotatable=0;points=[[0,0.5],[1,0.5]];portConstraint=eastwest;whiteSpace=wrap;html=1;" parent="jOOYg4f98chksV3a-Csq-39" vertex="1">
          <mxGeometry y="34" width="202.67" height="52" as="geometry" />
        </mxCell>
        <mxCell id="TxWl_RIkXLw9mioHR3yU-17" style="edgeStyle=orthogonalEdgeStyle;rounded=0;orthogonalLoop=1;jettySize=auto;html=1;exitX=0.5;exitY=0;exitDx=0;exitDy=0;endArrow=block;endFill=0;endSize=20;" edge="1" parent="1" source="jOOYg4f98chksV3a-Csq-46" target="jOOYg4f98chksV3a-Csq-39">
          <mxGeometry relative="1" as="geometry" />
        </mxCell>
        <mxCell id="jOOYg4f98chksV3a-Csq-46" value="PlayerSelection" style="swimlane;fontStyle=1;align=center;verticalAlign=top;childLayout=stackLayout;horizontal=1;startSize=26;horizontalStack=0;resizeParent=1;resizeParentMax=0;resizeLast=0;collapsible=1;marginBottom=0;whiteSpace=wrap;html=1;" parent="1" vertex="1">
          <mxGeometry x="60" y="1780" width="202.67" height="161" as="geometry" />
        </mxCell>
        <mxCell id="jOOYg4f98chksV3a-Csq-47" value="&lt;div&gt;+ screengraphic: ScreenGraphic*&lt;/div&gt;&lt;div&gt;+ pointer: Pointer*&lt;br&gt;&lt;/div&gt;" style="text;strokeColor=none;fillColor=none;align=left;verticalAlign=top;spacingLeft=4;spacingRight=4;overflow=hidden;rotatable=0;points=[[0,0.5],[1,0.5]];portConstraint=eastwest;whiteSpace=wrap;html=1;" parent="jOOYg4f98chksV3a-Csq-46" vertex="1">
          <mxGeometry y="26" width="202.67" height="41" as="geometry" />
        </mxCell>
        <mxCell id="jOOYg4f98chksV3a-Csq-48" value="" style="line;strokeWidth=1;fillColor=none;align=left;verticalAlign=middle;spacingTop=-1;spacingLeft=3;spacingRight=3;rotatable=0;labelPosition=right;points=[];portConstraint=eastwest;strokeColor=inherit;" parent="jOOYg4f98chksV3a-Csq-46" vertex="1">
          <mxGeometry y="67" width="202.67" height="8" as="geometry" />
        </mxCell>
        <mxCell id="jOOYg4f98chksV3a-Csq-49" value="&lt;div&gt;+&amp;nbsp;PlayerSelection(): PlayerSelection&lt;/div&gt;&lt;div&gt;+ ~PlayerSelection(): void&lt;br&gt;&lt;/div&gt;&lt;div&gt;+ draw(): void&lt;/div&gt;&lt;div&gt;+ getResult(): int&lt;br&gt;&lt;/div&gt;" style="text;strokeColor=none;fillColor=none;align=left;verticalAlign=top;spacingLeft=4;spacingRight=4;overflow=hidden;rotatable=0;points=[[0,0.5],[1,0.5]];portConstraint=eastwest;whiteSpace=wrap;html=1;" parent="jOOYg4f98chksV3a-Csq-46" vertex="1">
          <mxGeometry y="75" width="202.67" height="86" as="geometry" />
        </mxCell>
        <mxCell id="TxWl_RIkXLw9mioHR3yU-20" style="edgeStyle=orthogonalEdgeStyle;rounded=0;orthogonalLoop=1;jettySize=auto;html=1;exitX=0.5;exitY=0;exitDx=0;exitDy=0;endArrow=block;endFill=0;endSize=20;" edge="1" parent="1" source="jOOYg4f98chksV3a-Csq-50" target="jOOYg4f98chksV3a-Csq-39">
          <mxGeometry relative="1" as="geometry" />
        </mxCell>
        <mxCell id="jOOYg4f98chksV3a-Csq-50" value="DifficultySelection" style="swimlane;fontStyle=1;align=center;verticalAlign=top;childLayout=stackLayout;horizontal=1;startSize=26;horizontalStack=0;resizeParent=1;resizeParentMax=0;resizeLast=0;collapsible=1;marginBottom=0;whiteSpace=wrap;html=1;" parent="1" vertex="1">
          <mxGeometry x="630" y="1780" width="202.67" height="161" as="geometry" />
        </mxCell>
        <mxCell id="jOOYg4f98chksV3a-Csq-51" value="&lt;div&gt;+ screengraphic: ScreenGraphic*&lt;/div&gt;&lt;div&gt;+ pointer: Pointer*&lt;br&gt;&lt;/div&gt;" style="text;strokeColor=none;fillColor=none;align=left;verticalAlign=top;spacingLeft=4;spacingRight=4;overflow=hidden;rotatable=0;points=[[0,0.5],[1,0.5]];portConstraint=eastwest;whiteSpace=wrap;html=1;" parent="jOOYg4f98chksV3a-Csq-50" vertex="1">
          <mxGeometry y="26" width="202.67" height="41" as="geometry" />
        </mxCell>
        <mxCell id="jOOYg4f98chksV3a-Csq-52" value="" style="line;strokeWidth=1;fillColor=none;align=left;verticalAlign=middle;spacingTop=-1;spacingLeft=3;spacingRight=3;rotatable=0;labelPosition=right;points=[];portConstraint=eastwest;strokeColor=inherit;" parent="jOOYg4f98chksV3a-Csq-50" vertex="1">
          <mxGeometry y="67" width="202.67" height="8" as="geometry" />
        </mxCell>
        <mxCell id="jOOYg4f98chksV3a-Csq-53" value="&lt;div&gt;+&amp;nbsp;DifficultySelection(): DifficultySelection&lt;/div&gt;&lt;div&gt;+ ~DifficultySelection(): void&lt;br&gt;&lt;/div&gt;&lt;div&gt;+ draw(): void&lt;/div&gt;&lt;div&gt;+ getResult(): int&lt;br&gt;&lt;/div&gt;" style="text;strokeColor=none;fillColor=none;align=left;verticalAlign=top;spacingLeft=4;spacingRight=4;overflow=hidden;rotatable=0;points=[[0,0.5],[1,0.5]];portConstraint=eastwest;whiteSpace=wrap;html=1;" parent="jOOYg4f98chksV3a-Csq-50" vertex="1">
          <mxGeometry y="75" width="202.67" height="86" as="geometry" />
        </mxCell>
        <mxCell id="TxWl_RIkXLw9mioHR3yU-22" style="edgeStyle=orthogonalEdgeStyle;rounded=0;orthogonalLoop=1;jettySize=auto;html=1;exitX=0.5;exitY=0;exitDx=0;exitDy=0;endArrow=block;endFill=0;endSize=20;" edge="1" parent="1" source="jOOYg4f98chksV3a-Csq-54" target="jOOYg4f98chksV3a-Csq-39">
          <mxGeometry relative="1" as="geometry" />
        </mxCell>
        <mxCell id="jOOYg4f98chksV3a-Csq-54" value="EndscreenSelection" style="swimlane;fontStyle=1;align=center;verticalAlign=top;childLayout=stackLayout;horizontal=1;startSize=26;horizontalStack=0;resizeParent=1;resizeParentMax=0;resizeLast=0;collapsible=1;marginBottom=0;whiteSpace=wrap;html=1;" parent="1" vertex="1">
          <mxGeometry x="210" y="1990.5" width="202.67" height="174" as="geometry" />
        </mxCell>
        <mxCell id="jOOYg4f98chksV3a-Csq-55" value="&lt;div&gt;+ screengraphic: ScreenGraphic*&lt;/div&gt;&lt;div&gt;+ pointer: Pointer*&lt;br&gt;&lt;/div&gt;&lt;div&gt;+ winner: std::string&lt;br&gt;&lt;/div&gt;" style="text;strokeColor=none;fillColor=none;align=left;verticalAlign=top;spacingLeft=4;spacingRight=4;overflow=hidden;rotatable=0;points=[[0,0.5],[1,0.5]];portConstraint=eastwest;whiteSpace=wrap;html=1;" parent="jOOYg4f98chksV3a-Csq-54" vertex="1">
          <mxGeometry y="26" width="202.67" height="54" as="geometry" />
        </mxCell>
        <mxCell id="jOOYg4f98chksV3a-Csq-56" value="" style="line;strokeWidth=1;fillColor=none;align=left;verticalAlign=middle;spacingTop=-1;spacingLeft=3;spacingRight=3;rotatable=0;labelPosition=right;points=[];portConstraint=eastwest;strokeColor=inherit;" parent="jOOYg4f98chksV3a-Csq-54" vertex="1">
          <mxGeometry y="80" width="202.67" height="8" as="geometry" />
        </mxCell>
        <mxCell id="jOOYg4f98chksV3a-Csq-57" value="&lt;div&gt;+&amp;nbsp;EndscreenSelection(): EndscreenSelection&lt;/div&gt;&lt;div&gt;+ ~EndscreenSelection(): void&lt;br&gt;&lt;/div&gt;&lt;div&gt;+ draw(): void&lt;/div&gt;&lt;div&gt;+ getResult(): int&lt;br&gt;&lt;/div&gt;" style="text;strokeColor=none;fillColor=none;align=left;verticalAlign=top;spacingLeft=4;spacingRight=4;overflow=hidden;rotatable=0;points=[[0,0.5],[1,0.5]];portConstraint=eastwest;whiteSpace=wrap;html=1;" parent="jOOYg4f98chksV3a-Csq-54" vertex="1">
          <mxGeometry y="88" width="202.67" height="86" as="geometry" />
        </mxCell>
        <mxCell id="TxWl_RIkXLw9mioHR3yU-21" style="edgeStyle=orthogonalEdgeStyle;rounded=0;orthogonalLoop=1;jettySize=auto;html=1;exitX=0.5;exitY=0;exitDx=0;exitDy=0;endArrow=block;endFill=0;endSize=20;" edge="1" parent="1" source="jOOYg4f98chksV3a-Csq-58" target="jOOYg4f98chksV3a-Csq-39">
          <mxGeometry relative="1" as="geometry" />
        </mxCell>
        <mxCell id="jOOYg4f98chksV3a-Csq-58" value="HandshakeScreen" style="swimlane;fontStyle=1;align=center;verticalAlign=top;childLayout=stackLayout;horizontal=1;startSize=26;horizontalStack=0;resizeParent=1;resizeParentMax=0;resizeLast=0;collapsible=1;marginBottom=0;whiteSpace=wrap;html=1;" parent="1" vertex="1">
          <mxGeometry x="442" y="1990" width="202.67" height="175" as="geometry" />
        </mxCell>
        <mxCell id="jOOYg4f98chksV3a-Csq-59" value="&lt;div&gt;+ screengraphic: ScreenGraphic*&lt;/div&gt;&lt;div&gt;+ pointer: Pointer*&lt;br&gt;&lt;/div&gt;&lt;div&gt;- dots: int&lt;br&gt;&lt;/div&gt;" style="text;strokeColor=none;fillColor=none;align=left;verticalAlign=top;spacingLeft=4;spacingRight=4;overflow=hidden;rotatable=0;points=[[0,0.5],[1,0.5]];portConstraint=eastwest;whiteSpace=wrap;html=1;" parent="jOOYg4f98chksV3a-Csq-58" vertex="1">
          <mxGeometry y="26" width="202.67" height="55" as="geometry" />
        </mxCell>
        <mxCell id="jOOYg4f98chksV3a-Csq-60" value="" style="line;strokeWidth=1;fillColor=none;align=left;verticalAlign=middle;spacingTop=-1;spacingLeft=3;spacingRight=3;rotatable=0;labelPosition=right;points=[];portConstraint=eastwest;strokeColor=inherit;" parent="jOOYg4f98chksV3a-Csq-58" vertex="1">
          <mxGeometry y="81" width="202.67" height="8" as="geometry" />
        </mxCell>
        <mxCell id="jOOYg4f98chksV3a-Csq-61" value="&lt;div&gt;+&amp;nbsp;HandshakeScreen(): HandshakeScreen&lt;/div&gt;&lt;div&gt;+ ~HandshakeScreen(): void&lt;br&gt;&lt;/div&gt;&lt;div&gt;+ draw(): void&lt;/div&gt;&lt;div&gt;+ getResult(): int&lt;br&gt;&lt;/div&gt;" style="text;strokeColor=none;fillColor=none;align=left;verticalAlign=top;spacingLeft=4;spacingRight=4;overflow=hidden;rotatable=0;points=[[0,0.5],[1,0.5]];portConstraint=eastwest;whiteSpace=wrap;html=1;" parent="jOOYg4f98chksV3a-Csq-58" vertex="1">
          <mxGeometry y="89" width="202.67" height="86" as="geometry" />
        </mxCell>
        <mxCell id="TxWl_RIkXLw9mioHR3yU-2" style="edgeStyle=orthogonalEdgeStyle;rounded=0;orthogonalLoop=1;jettySize=auto;html=1;entryX=0.46;entryY=1.009;entryDx=0;entryDy=0;entryPerimeter=0;endArrow=block;endFill=0;endSize=20;" edge="1" parent="1" source="jOOYg4f98chksV3a-Csq-23" target="jOOYg4f98chksV3a-Csq-22">
          <mxGeometry relative="1" as="geometry">
            <Array as="points">
              <mxPoint x="718" y="722" />
              <mxPoint x="444" y="722" />
            </Array>
          </mxGeometry>
        </mxCell>
      </root>
    </mxGraphModel>
  </diagram>
</mxfile>
